<svg xmlns="http://www.w3.org/2000/svg" viewBox="0 0 210 297">
    <g transform="scale(-1,1)" transform-origin="105 0">
        <path d="m 118.32001,114.32801 c -10.37782,0.004 -19.91422,5.70961 -24.824507,14.85227 -3.470212,-2.62315 -7.699423,-4.0465 -12.049504,-4.05528 -11.073004,-3e-5 -20.049446,8.97641 -20.049429,20.04942 0.0041,0.21038 0.01192,0.42068 0.02284,0.63082 -0.500948,-0.0472 -1.003735,-0.0723 -1.506896,-0.0753 -9.468501,-3.3e-4 -17.144323,7.6755 -17.143996,17.144 3.04e-4,9.46805 7.675939,17.14317 17.143996,17.14285 h 81.417136 c 9.46805,3.2e-4 17.14369,-7.6748 17.14399,-17.14285 -0.004,-7.5881 -4.99566,-14.27089 -12.2708,-16.42762 0.19413,-1.30039 0.29704,-2.61277 0.30799,-3.92752 -1e-5,-15.56935 -12.62145,-28.19079 -28.19079,-28.1908 z"/>
    </g>
</svg>